<svg xmlns="http://www.w3.org/2000/svg" xmlns:xlink="http://www.w3.org/1999/xlink" width="54.815" height="56.388"><g id="Layer_1" transform="translate(-22.641 -21.806)"><g id="g5" enable-background="new"><path d="m22.812 35.714c-.107-.234-.17-.475-.17-.715l.17 .715z" id="path7" fill="#8c3323"/><path d="m77.188 35.714l.17-.715c0 .24-.058 .479-.17 .715z" id="path9" fill="#8c3323"/><polygon points="77.188,33.388 77.358,32.671 77.358,34.999 77.188,35.714" id="polygon11" fill="#8c3323"/><polygon points="22.642,32.671 22.812,33.388 22.812,35.714 22.642,34.999" id="polygon13" fill="#8c3323"/><defs id="defs15"><path id="SVGID_1_" d="m77.358 28.229v2.327c0 3.561-12.25 6.429-27.363 6.429-15.105 0-27.354-2.868-27.354-6.429v-2.327c0 3.562 12.248 6.431 27.354 6.431 15.113 0 27.363-2.868 27.363-6.431z"/></defs><use xlink:href="#SVGID_1_" overflow="visible" id="use18" width="100" height="100" fill="#8c3323"/><clipPath id="SVGID_2_"><use xlink:href="#SVGID_1_" overflow="visible" id="use21" width="100" height="100"/></clipPath><g clip-path="url(#SVGID_2_)" id="g23" fill="#8c3323" enable-background="new"><path d="m77.358 28.229v2.327l-.023 .251v-2.324l.023-.254" id="path25"/><path d="m77.335 28.483v2.324l-.076 .295v-2.328l.076-.291" id="path27"/><path d="m77.259 28.774v2.328c-.045 .133-.111 .267-.193 .399v-2.325c.081-.13 .148-.265 .193-.402" id="path29"/><path d="m77.065 29.177v2.325c-1.943 3.112-13.32 5.483-27.07 5.483-15.105 0-27.354-2.868-27.354-6.429v-2.327c0 3.562 12.248 6.431 27.354 6.431 13.75 0 25.127-2.372 27.07-5.483" id="path31"/></g><path d="m49.995 21.806c15.113 0 27.363 2.877 27.363 6.424 0 3.562-12.25 6.431-27.363 6.431-15.105 0-27.354-2.868-27.354-6.431 .001-3.547 12.249-6.424 27.354-6.424z" id="path33" fill="#e15343"/><polygon points="68.241,71.587 77.188,33.388 77.188,35.714 68.241,73.909" id="polygon35" fill="#8c3323"/><polygon points="22.812,33.388 31.761,71.587 31.761,73.909 22.812,35.714" id="polygon37" fill="#8c3323"/><defs id="defs39"><path id="SVGID_3_" d="m68.241 71.587v2.322c0 2.374-8.166 4.285-18.246 4.285-10.07 0-18.234-1.911-18.234-4.285v-2.322c0 2.372 8.164 4.28 18.234 4.28 10.08 0 18.246-1.908 18.246-4.28z"/></defs><use xlink:href="#SVGID_3_" overflow="visible" id="use42" width="100" height="100" fill="#8c3323"/><clipPath id="SVGID_4_"><use xlink:href="#SVGID_3_" overflow="visible" id="use45" width="100" height="100"/></clipPath><g clip-path="url(#SVGID_4_)" id="g47" fill="#8c3323" enable-background="new"><path d="m68.241 71.587v2.322l-.018 .172v-2.329l.018-.165" id="path49"/><path d="m68.224 71.752v2.329l-.047 .193v-2.325l.047-.197" id="path51"/><path d="m68.177 71.949v2.325l-.131 .268v-2.329l.131-.264" id="path53"/><path d="m68.046 72.213v2.329c-1.295 2.072-8.879 3.652-18.051 3.652-10.07 0-18.234-1.911-18.234-4.285v-2.322c0 2.372 8.164 4.28 18.234 4.28 9.172 0 16.756-1.581 18.051-3.654" id="path55"/></g><path d="m49.995 39.095c14.088 0 25.684-2.49 27.193-5.707l-8.947 38.199c0 2.372-8.166 4.28-18.246 4.28-10.07 0-18.234-1.908-18.234-4.28l-8.949-38.199c1.511 3.216 13.105 5.707 27.183 5.707z" id="path57" fill="#e15343"/></g><path d="m77.42 32.668l.036 .109-.014-.063-.022-.046z" id="path59" fill="#146eb4"/><path d="m77.391 32.579l-.059-.201 .059 .201z" id="path61" fill="#146eb4"/></g></svg>
