<?xml version="1.0" encoding="UTF-8" standalone="no"?>
<svg id="svg2" xmlns:rdf="http://www.w3.org/1999/02/22-rdf-syntax-ns#" width="30" height="30" xmlns="http://www.w3.org/2000/svg" viewBox="0 -10 54.815 66.388" version="1.1" xmlns:cc="http://creativecommons.org/ns#" xmlns:xlink="http://www.w3.org/1999/xlink" xmlns:dc="http://purl.org/dc/elements/1.1/">
 <metadata id="metadata40">
  <rdf:RDF>
   <cc:Work rdf:about="">
    <dc:format>image/svg+xml</dc:format>
    <dc:type rdf:resource="http://purl.org/dc/dcmitype/StillImage"/>
    <dc:title/>
   </cc:Work>
  </rdf:RDF>
 </metadata>
 <g id="Layer_1" transform="translate(-22.641,-21.806)">
  <g id="g5" style="enable-background:new;">
   <path id="path7" fill="#8c3323" d="m22.812,35.714c-0.107-0.234-0.17-0.475-0.17-0.715l0.17,0.715z"/>
   <path id="path9" fill="#8c3323" d="m77.188,35.714,0.17-0.715c0,0.24-0.058,0.479-0.17,0.715z"/>
   <polygon id="polygon11" points="77.358,32.671,77.358,34.999,77.188,35.714,77.188,33.388" fill="#8c3323"/>
   <polygon id="polygon13" points="22.812,33.388,22.812,35.714,22.642,34.999,22.642,32.671" fill="#8c3323"/>
   <defs id="defs15">
    <path id="SVGID_1_" d="m77.358,28.229v2.327c0,3.561-12.25,6.429-27.363,6.429-15.105,0-27.354-2.868-27.354-6.429v-2.327c0,3.562,12.248,6.431,27.354,6.431,15.113,0,27.363-2.868,27.363-6.431z"/>
   </defs>
   <use id="use18" xlink:href="#SVGID_1_" height="100" width="100" y="0" x="0" overflow="visible" fill="#8c3323"/>
   <clipPath id="SVGID_2_">
    <use id="use21" xlink:href="#SVGID_1_" height="100" width="100" y="0" x="0" overflow="visible"/>
   </clipPath>
   <g id="g23" style="enable-background:new;" fill="#8c3323" clip-path="url(#SVGID_2_)">
    <path id="path25" d="m77.358,28.229v2.327l-0.023,0.251v-2.324l0.023-0.254"/>
    <path id="path27" d="m77.335,28.483v2.324l-0.076,0.295v-2.328l0.076-0.291"/>
    <path id="path29" d="m77.259,28.774v2.328c-0.045,0.133-0.111,0.267-0.193,0.399v-2.325c0.081-0.13,0.148-0.265,0.193-0.402"/>
    <path id="path31" d="m77.065,29.177v2.325c-1.943,3.112-13.32,5.483-27.07,5.483-15.105,0-27.354-2.868-27.354-6.429v-2.327c0,3.562,12.248,6.431,27.354,6.431,13.75,0,25.127-2.372,27.07-5.483"/>
   </g>
   <path id="path33" fill="#e15343" d="m49.995,21.806c15.113,0,27.363,2.877,27.363,6.424,0,3.562-12.25,6.431-27.363,6.431-15.105,0-27.354-2.868-27.354-6.431,0.001-3.547,12.249-6.424,27.354-6.424z"/>
   <polygon id="polygon35" points="77.188,33.388,77.188,35.714,68.241,73.909,68.241,71.587" fill="#8c3323"/>
   <polygon id="polygon37" points="31.761,71.587,31.761,73.909,22.812,35.714,22.812,33.388" fill="#8c3323"/>
   <defs id="defs39">
    <path id="SVGID_3_" d="m68.241,71.587v2.322c0,2.374-8.166,4.285-18.246,4.285-10.07,0-18.234-1.911-18.234-4.285v-2.322c0,2.372,8.164,4.28,18.234,4.28,10.08,0,18.246-1.908,18.246-4.28z"/>
   </defs>
   <use id="use42" xlink:href="#SVGID_3_" height="100" width="100" y="0" x="0" overflow="visible" fill="#8c3323"/>
   <clipPath id="SVGID_4_">
    <use id="use45" xlink:href="#SVGID_3_" height="100" width="100" y="0" x="0" overflow="visible"/>
   </clipPath>
   <g id="g47" style="enable-background:new;" fill="#8c3323" clip-path="url(#SVGID_4_)">
    <path id="path49" d="m68.241,71.587v2.322l-0.018,0.172v-2.329l0.018-0.165"/>
    <path id="path51" d="m68.224,71.752v2.329l-0.047,0.193v-2.325l0.047-0.197"/>
    <path id="path53" d="m68.177,71.949v2.325l-0.131,0.268v-2.329l0.131-0.264"/>
    <path id="path55" d="m68.046,72.213v2.329c-1.295,2.072-8.879,3.652-18.051,3.652-10.07,0-18.234-1.911-18.234-4.285v-2.322c0,2.372,8.164,4.28,18.234,4.28,9.172,0,16.756-1.581,18.051-3.654"/>
   </g>
   <path id="path57" fill="#e15343" d="m49.995,39.095c14.088,0,25.684-2.49,27.193-5.707l-8.947,38.199c0,2.372-8.166,4.28-18.246,4.28-10.07,0-18.234-1.908-18.234-4.28l-8.949-38.199c1.511,3.216,13.105,5.707,27.183,5.707z"/>
  </g>
  <path id="path59" fill="#146eb4" d="m77.42,32.668,0.036,0.109-0.014-0.063-0.022-0.046z"/>
  <path id="path61" fill="#146eb4" d="m77.391,32.579-0.059-0.201,0.059,0.201z"/>
 </g>
</svg>
